<svg width="22" height="21" viewBox="0 0 22 21" fill="none" xmlns="http://www.w3.org/2000/svg">
<path fill-rule="evenodd" clip-rule="evenodd" d="M16.4134 0.887415C16.1949 0.554194 15.8731 0.294283 15.4926 0.143862C15.1122 -0.00656023 14.6921 -0.0400089 14.2908 0.0481728L11.4426 0.672689C11.1508 0.736731 10.8475 0.736731 10.5556 0.672689L7.70745 0.0481728C7.30615 -0.0400089 6.88604 -0.00656023 6.50559 0.143862C6.12514 0.294283 5.80328 0.554194 5.58482 0.887415L4.03245 3.25241C3.87405 3.49436 3.6602 3.6985 3.40675 3.85122L0.929294 5.33313C0.580831 5.54149 0.30896 5.84823 0.15142 6.2108C-0.00612084 6.57336 -0.0415167 6.97374 0.0501453 7.35638L0.704359 10.0782C0.771203 10.3564 0.771203 10.6454 0.704359 10.9235L0.0501453 13.6439C-0.0418729 14.0267 -0.00665522 14.4275 0.150902 14.7903C0.30846 15.1532 0.58053 15.4602 0.929294 15.6686L3.40675 17.1506C3.6602 17.3018 3.87405 17.5059 4.03403 17.7478L5.58641 20.1128C6.03311 20.7948 6.88533 21.132 7.70745 20.9521L10.5556 20.3276C10.8475 20.2635 11.1508 20.2635 11.4426 20.3276L14.2924 20.9521C14.6934 21.0399 15.1132 21.0063 15.4933 20.8559C15.8734 20.7055 16.195 20.4458 16.4134 20.1128L17.9658 17.7478C18.1242 17.5059 18.338 17.3018 18.5915 17.1506L21.0705 15.6686C21.4193 15.4599 21.6912 15.1526 21.8485 14.7894C22.0058 14.4262 22.0406 14.0253 21.9481 13.6424L21.2954 10.9235C21.2284 10.6449 21.2284 10.3554 21.2954 10.0767L21.9497 7.35638C22.0418 6.97368 22.0068 6.57307 21.8496 6.21022C21.6923 5.84737 21.4206 5.54028 21.0721 5.33161L18.5931 3.84971C18.34 3.69822 18.126 3.49402 17.9674 3.25241L16.4134 0.887415ZM15.6166 7.12804C15.7146 6.95606 15.7389 6.75451 15.6843 6.56579C15.6298 6.37707 15.5007 6.21589 15.3242 6.11618C15.1477 6.01647 14.9376 5.98599 14.7381 6.03116C14.5385 6.07633 14.3651 6.19362 14.2543 6.35836L10.112 13.0511L7.61082 10.7648C7.53662 10.692 7.44783 10.6343 7.34976 10.595C7.25168 10.5558 7.14632 10.5358 7.03997 10.5362C6.93362 10.5366 6.82845 10.5575 6.73073 10.5976C6.63302 10.6377 6.54476 10.6962 6.47123 10.7695C6.39769 10.8428 6.34038 10.9296 6.30272 11.0245C6.26506 11.1195 6.24782 11.2207 6.25202 11.3221C6.25622 11.4236 6.28178 11.5232 6.32717 11.615C6.37257 11.7068 6.43687 11.7889 6.51624 11.8565L9.7382 14.8037C9.82444 14.8824 9.92818 14.9415 10.0417 14.9766C10.1552 15.0116 10.2756 15.0218 10.3938 15.0062C10.5119 14.9907 10.6249 14.9498 10.7243 14.8867C10.8236 14.8236 10.9067 14.74 10.9674 14.6419L15.6166 7.12804Z" fill="#08E964"/>
</svg>
