<svg width="19" height="18" viewBox="0 0 19 18" fill="none" xmlns="http://www.w3.org/2000/svg">
<path d="M16.6667 14.1667V15H1.66668V14.1667L3.33335 12.5V7.5C3.33335 4.91667 5.02502 2.64167 7.50002 1.90833V1.66667C7.50002 1.22464 7.67561 0.800716 7.98817 0.488155C8.30073 0.175595 8.72466 0 9.16668 0C9.60871 0 10.0326 0.175595 10.3452 0.488155C10.6578 0.800716 10.8333 1.22464 10.8333 1.66667V1.90833C13.3083 2.64167 15 4.91667 15 7.5V12.5L16.6667 14.1667ZM10.8333 15.8333C10.8333 16.2754 10.6578 16.6993 10.3452 17.0118C10.0326 17.3244 9.60871 17.5 9.16668 17.5C8.72466 17.5 8.30073 17.3244 7.98817 17.0118C7.67561 16.6993 7.50002 16.2754 7.50002 15.8333M15.625 0.991667L14.4417 2.175C15.1466 2.87113 15.7062 3.70029 16.0882 4.61438C16.4701 5.52848 16.6667 6.50932 16.6667 7.5H18.3333C18.3333 5.05833 17.3667 2.70833 15.625 0.991667ZM1.58301e-05 7.5H1.66668C1.66668 5.5 2.46668 3.58333 3.89168 2.175L2.70835 0.991667C1.84825 1.84297 1.16591 2.85672 0.700968 3.97401C0.236028 5.09129 -0.0022372 6.28984 1.58301e-05 7.5Z" fill="#08E964"/>
</svg>
